<?xml version="1.0" encoding="UTF-8"?>
<svg id="Layer_2" data-name="Layer 2" xmlns="http://www.w3.org/2000/svg" viewBox="0 0 580.49 141.78">
  <defs>
    <style>
      .cls-1 {
        font-family: Cocon-Regular, Cocon;
        font-size: 101.29px;
      }

      .cls-2 {
        fill: #fbd900;
      }

      .cls-3, .cls-4 {
        fill: #7d4230;
      }

      .cls-5 {
        fill: #76bf43;
      }

      .cls-4 {
        fill-rule: evenodd;
      }
    </style>
  </defs>
  <g id="Layer_1-2" data-name="Layer 1">
    <g>
      <path class="cls-2" d="M81.93,51.81l7.02,45.55,3.87,15.53s3.55,5.64,4.2,5.73c.66,.09,8.4,1.61,9.01,1.57,.61-.04,12.48-3.64,12.48-3.64,0,0,2.35-5.3,2.38-6.04,.03-.74,4.14-55.98,4.14-55.98l-2.39-.13-23.56,1.55-6.55-.43-6.14-2.62-4.47-1.09Z"/>
      <path class="cls-2" d="M85.25,9.2c-28.19-7.49-59.89,3.87-59.89,3.87l2.8,.47s-11.72,8.87-11.9,9.43S7.3,51,6.68,53.76c-.62,2.77-.68,17.68-1.01,18.28-.33,.61,2.42,5.36,2.42,5.36l5.66,.53,1.83-1.51,14.22-15.43s17.25-21.95,48.76-30.09c20.67-5.34,33.55-.18,39.97,4l.61-3.24c-5.19-7.26-16.14-17.74-33.89-22.45Z"/>
      <path class="cls-2" d="M85.35,46.74s7.79-4.16,8.51-4.35c.72-.18,11.05-2.8,11.05-2.8,0,0,9.21,.83,10.3,1.29,1.09,.45,5.87,.46,6.48,1.04,.61,.58,4.81,2.92,4.81,2.92,.67,.78,1.84,3.19,1.84,3.19l-2.13,3.46s-6.37,5.02-7.05,5.44c-.68,.42-22.66,2.57-22.66,2.57l-6.62-3.19-4.68-2.22,.16-7.35Z"/>
      <path class="cls-2" d="M34.02,124.09s6.36,7.82,17.99,5.86c11.63-1.97,11.55-3.51,15.25-5.76,3.71-2.25,21.91-15.22,22.2-15.96,.29-.74-.45-17.77-.45-17.77,0,0,.32-1.4-1.38-.21-1.7,1.19-16.32,12.38-16.61,13.13-.29,.74-12.16,10.37-13.16,10.83-1,.47-11.16,7.66-11.16,7.66l-12.67,2.22Z"/>
      <path class="cls-5" d="M22.69,110.76s6.41,8.94,9.15,11.57c2.74,2.63,12.85-1.31,12.85-1.31,0,0,10.54-4.86,11.38-5.69,.85-.83,13.3-9.25,13.3-9.25,0,0,11.64-9.46,13.41-10.72,1.77-1.26,4.8-4.27,4.84-5.11,.04-.83-2.49-14.65-2.49-14.65,0,0,0-2.66-.29-1.77-.29,.89-12.81,14.07-12.81,14.07l-19.76,13.32-9.42,6.44s-17.34,7.15-20.16,3.1Z"/>
      <path class="cls-2" d="M52.58,56.62s-25.24,16.6-29.4,32.04c-4.16,15.44-2.53,17.05-2.53,17.05,0,0,.01,6.7,11.15,8.32,11.14,1.62,42.67-27.93,42.67-27.93l10.36-12.27-1.85-15.97-5.76-2.61-11.95-2.42-12.69,3.79Z"/>
      <path class="cls-4" d="M128.57,48.15s.26-.18,.23-.01c0,0,.09,1.31-.13,3.27-1.57,14.06-7.02,60.82-7.02,60.82-.23,1.6-.99,3.11-2.16,4.27-1.72,1.71-4.73,3.91-9.52,4.98-7.06,1.58-13.14-1.03-16.54-3.06-1.81-1.08-3.02-2.9-3.31-5.02l-8.75-63.48s1.74-.02,2.3,5.71c2,20.5,7.59,42.59,8.88,51.25,1.8,12.02,13.73,12.56,22.33,8.65,1.41-.64,4.17-3.07,4.42-4.6l2.24-55.42c.08-.48,5.43-4.59,7.02-7.35Z"/>
      <path class="cls-3" d="M138.96,55.22s.18,.2,.48,.6c.28,.41,.72,1.01,1.18,1.83,.93,1.63,2.08,4.1,2.94,7.26,.43,1.58,.81,3.33,1.05,5.22,.26,1.88,.39,3.9,.39,5.99,0,1.05-.03,2.12-.11,3.2-.05,1.08-.18,2.17-.32,3.27-.14,1.1-.34,2.2-.54,3.31-.25,1.1-.48,2.21-.76,3.3-.6,2.18-1.27,4.36-2.11,6.43-.41,1.04-.81,2.07-1.29,3.06-.47,.99-.89,1.99-1.42,2.91-.52,.93-.97,1.87-1.51,2.74-.54,.87-1.05,1.73-1.57,2.55-1.1,1.61-2.12,3.13-3.19,4.44-.53,.66-1.04,1.29-1.52,1.89-.5,.59-.99,1.13-1.46,1.63-.93,1.01-1.75,1.88-2.48,2.55-.71,.68-1.3,1.19-1.69,1.55-.4,.35-.61,.53-.61,.53,0,0,.11-.26,.32-.74,.22-.47,.52-1.18,.94-2.05,.43-.86,.91-1.93,1.47-3.14,.27-.61,.6-1.23,.9-1.91,.3-.67,.62-1.38,.96-2.12,.17-.36,.35-.74,.52-1.12,.16-.38,.33-.78,.5-1.17,.34-.8,.72-1.6,1.07-2.44,.34-.85,.71-1.71,1.07-2.59,.35-.88,.7-1.79,1.06-2.7,1.41-3.67,2.73-7.6,3.77-11.58,.28-.99,.49-1.99,.75-2.98,.18-1,.45-1.99,.62-2.98,.37-1.98,.68-3.93,.91-5.83,.22-1.9,.4-3.75,.47-5.5,.1-1.76,.12-3.43,.1-4.98,0-1.55-.09-2.97-.17-4.24-.08-1.27-.2-2.38-.3-3.3-.12-.92-.2-1.65-.29-2.14-.09-.5-.13-.76-.13-.76Z"/>
      <path class="cls-4" d="M88.27,93.16c-1.4,1.63-38.55,33.1-49.15,33.18-2.63,.02-4.71-1.13-5.91-3.5,0,0,4.11,8.9,53.59-34.62l1.47,4.94Zm-52.97-5.59h0s-.01-.01-.02,.01c.02,.01,.03,.02,.02,0h0s0,0,0,0h0Zm28.92-20.57s0,0-.02,0c0,.01,.01,.02,.02,0h0Z"/>
      <path class="cls-3" d="M83.65,59.42c-1.19-.59-2.66-1.23-4.39-1.68-1.73-.46-3.73-.76-5.91-.79-2.19-.01-4.56,.21-7.03,.73-2.48,.52-5.06,1.3-7.66,2.34-1.3,.52-2.61,1.09-3.92,1.72-.65,.32-1.31,.65-1.96,1-.66,.33-1.3,.7-1.96,1.05-2.58,1.5-5.15,3.13-7.57,4.98-2.46,1.8-4.76,3.81-6.94,5.87-2.14,2.1-4.16,4.26-5.91,6.51-.9,1.11-1.68,2.26-2.47,3.38-.75,1.14-1.46,2.28-2.08,3.41-1.27,2.27-2.23,4.53-2.92,6.69-.7,2.16-1.11,4.21-1.3,6.07-.19,1.86-.16,3.51-.07,4.88,.11,1.37,.25,2.44,.4,3.19,.14,.75,.21,1.15,.21,1.15,0,0-.22-.33-.62-.96-.21-.31-.42-.72-.68-1.21-.28-.49-.53-1.07-.81-1.73-.54-1.33-1.08-3.03-1.39-5.08-.32-2.05-.39-4.44-.09-7.04,.3-2.6,.96-5.4,2.04-8.21,1.07-2.82,2.52-5.68,4.31-8.42,.44-.7,.91-1.37,1.39-2.05,.5-.66,.99-1.34,1.52-1.99,1.03-1.33,2.16-2.6,3.33-3.84,2.35-2.48,4.95-4.77,7.7-6.85,2.77-2.06,5.69-3.89,8.7-5.43,1.51-.76,3.03-1.48,4.57-2.07,1.54-.61,3.08-1.17,4.63-1.6,3.08-.91,6.17-1.43,9.11-1.61,2.94-.17,5.74,.08,8.23,.62,2.49,.57,4.67,1.47,6.42,2.5,1.76,1.03,2.12,1.57,3.11,2.59l.03,1.89Z"/>
      <path class="cls-4" d="M92.37,109.81c-21.51,18.09-32.64,22.35-42.17,22.45-8.02,.08-14.22-4.8-15.18-7.28,0,0,9.67,15.45,55.79-23.55l1.57,8.37Z"/>
      <path class="cls-4" d="M123.29,.36l-.34,.1-.1,.48-8.66,47.81,1.8-.25,7.62-40.79c.09-.02,.18-.04,.27-.05,1.05-.16,1.62,.11,1.9,.33l-9.31,40.45,1.57-.21L128.9,2.13v-.56s-1.37-2.47-5.61-1.21Z"/>
      <path class="cls-4" d="M127.91,44.81c-.38-.59-.86-1.15-1.45-1.68,0,0-3.67-3.59-11-4.57-3.07-.41-6.44-.82-10.05-.73-6.65,.17-12.73,1.53-17.2,3.6-4.62,2.14-7.54,5.05-7.7,8.24h0s0,.01,0,.01h0c-.15,3.18,2.51,5.94,6.92,7.84,4.27,1.84,10.23,2.89,16.86,2.72h0s.06,0,.06,0c6.47-.17,12.42-1.47,16.8-3.44,4.52-2.04,7.43-4.83,7.65-7.89l-.08-1.96c-.12-.75-.41-1.46-.84-2.13Zm-.65,3.66c-.22,2.08-2.63,4.04-6.35,5.53-3.6,1.44-8.47,2.46-13.76,2.73h-.05s0,0,0,0c-5.42,.27-10.26-.3-13.72-1.44-3.57-1.18-5.7-2.99-5.54-5.15h0s0,0,0,0h0c.17-2.17,2.6-4.21,6.39-5.77,3.67-1.5,8.65-2.57,14.08-2.84,2.94-.15,5.69,.05,8.19,.25,5.97,.49,8.91,2.83,8.91,2.83,.47,.35,.86,.71,1.16,1.1,.34,.45,.56,.92,.65,1.43l.03,1.33Z"/>
      <path class="cls-3" d="M84.71,76.07c.06,1.26-.82,3.63-1.07,4.83-.24,1.25-.7,2.52-1.35,3.76-.65,1.25-1.47,2.47-2.45,3.65l-.2,.24-.1,.12s-.04,.04-.05,.05c-.09,.1-.19,.2-.29,.3-.2,.2-.43,.38-.67,.54-.47,.32-.98,.54-1.41,.62-.11,.02-.22,.03-.3,.04-.02,0-.04,0-.06,0h-.27s-.03-.02-.03-.02h-.08s-.21-.05-.21-.05l-.55-.12c-.43-.09-.99-.21-1.77-.18-.2,.01-.4,.03-.62,.08-.16,.02-.61,.15-.71,.19l-.26,.1c-.11,.05-.22,.1-.32,.15-.21,.11-.39,.23-.57,.35-.34,.24-.62,.49-.85,.73l-.16,.17-.14,.16c-.11,.12-.22,.26-.32,.4-.39,.52-.64,.97-.88,1.4-.45,.85-.8,1.63-1.15,2.38-.69,1.5-1.38,2.9-2.21,4.15-.81,1.26-1.75,2.35-2.84,3.16-.54,.41-1.12,.76-1.73,1.04l-.46,.2-.48,.17c-.16,.07-.3,.09-.45,.14-.14,.04-.28,.09-.5,.13l-.52,.12s-.11,.02-.22,.02c-.22,0-.59-.04-1.1-.06-.5-.03-1.22,.01-1.86,.22-.6,.18-1.16,.44-1.66,.75-1,.63-1.74,1.4-2.33,2.18-.3,.4-.54,.77-.79,1.21l-.3,.55-.27,.53c-.7,1.41-1.23,2.55-2.05,3.49-1.87,2.17-3.75,4.14-5.73,5.61-.99,.73-1.98,1.35-2.96,1.83-.98,.46-1.95,.76-2.87,.88-1.84,.23-3.43-.26-4.54-.94-1.13-.67-1.9-1.41-2.38-1.92-.49-.52-.74-.82-.74-.82,0,0,.05,.08,.13,.25,.09,.16,.21,.41,.41,.71,.1,.15,.21,.32,.33,.51,.13,.18,.28,.38,.44,.59,.16,.21,.36,.42,.56,.65,.22,.21,.44,.46,.72,.67,.53,.46,1.2,.9,2.03,1.24,.83,.35,1.83,.57,2.95,.56,1.12-.01,2.33-.24,3.54-.65,1.21-.42,2.42-1.03,3.6-1.76,1.18-.73,2.33-1.59,3.46-2.53,1.13-.94,2.24-1.97,3.3-3.09l.22-.23,.2-.22c.16-.19,.31-.36,.44-.53,.27-.34,.52-.7,.75-1.04,.46-.7,.85-1.39,1.23-2.03l.28-.47,.29-.45c.15-.22,.36-.5,.55-.72,.4-.46,.83-.84,1.23-1.06,.2-.11,.39-.18,.58-.22,.14-.03,.22-.03,.51,0,.27,.02,.68,.1,1.24,.12,.28,0,.61,0,.98-.05l.68-.12c1.94-.37,3.87-1.16,5.56-2.39,1.69-1.21,3.05-2.76,4.11-4.33,1.06-1.58,1.87-3.22,2.6-4.76,.36-.77,.71-1.52,1.04-2.16,.16-.31,.34-.6,.46-.77l.08-.1,.13-.14s.07-.07,.1-.09c.1,0,.3,.02,.6,.09l.62,.12c.12,.02,.25,.04,.39,.06l.22,.03h.11s.18,.02,.18,.02h.33c.19,0,.37,0,.56,0,.32-.03,.63-.07,.93-.14,1.21-.27,2.27-.81,3.19-1.46,.46-.33,.89-.69,1.28-1.09,.19-.2,.38-.41,.56-.62l.15-.19,.09-.12,.19-.25c1.08-1.42,2.05-2.95,2.78-4.54,.11-.23,1.05-1.7,1.15-1.94l-2.24-7.88Zm-11.14,17.93h0s-.01,0,0,0c0,0,0,0,0,0Zm.07-.02h0s.01,0,.01,0c.08-.03,.02,0-.02,0Z"/>
      <path class="cls-3" d="M87.27,72.5s.15,.05,.43,.15c.28,.12,.68,.24,1.18,.4,1.01,.33,2.41,.71,4.05,.97,.82,.13,1.69,.23,2.6,.29,.46,.02,.92,.05,1.39,.05,.23,0,.46,0,.7,0h.4s.33-.02,.33-.02c.44-.03,.94-.07,1.4-.13,.47-.06,.94-.15,1.4-.24,.91-.21,1.79-.47,2.55-.87,.39-.18,.74-.4,1.08-.63l.23-.19,.06-.05,.03-.02h.02s-.04,.02-.03,.01h.01s.16-.15,.16-.15l.22-.19,.23-.23c.31-.32,.63-.69,.97-1.09,.34-.4,.7-.86,1.1-1.3,.21-.23,.39-.43,.65-.68l.29-.27,.35-.3c.24-.21,.48-.39,.7-.56,.23-.18,.46-.33,.69-.48,.93-.59,1.87-1.01,2.76-1.31,1.78-.6,3.35-.68,4.44-.62,.54,.03,.97,.1,1.26,.15,.29,.05,.44,.09,.44,.09,0,0-.13,.08-.36,.23-.24,.13-.58,.37-1,.65-.84,.56-1.97,1.38-3.15,2.47-.59,.54-1.18,1.16-1.74,1.84-.27,.34-.58,.7-.8,1.04-.14,.2-.27,.4-.41,.6-.12,.19-.24,.39-.36,.58-.25,.43-.52,.89-.84,1.4-.31,.51-.66,1.05-1.11,1.58-.11,.13-.22,.27-.34,.4l-.38,.41-.15,.15-.23,.21-.42,.36c-.58,.44-1.18,.83-1.81,1.14-1.27,.6-2.59,.96-3.9,1.1-.65,.08-1.3,.1-1.94,.09-.64-.01-1.25-.06-1.9-.16l-.48-.07-.41-.08-.2-.04c-.14-.02-.17-.03-.25-.05l-.43-.11c-.57-.16-1.13-.32-1.67-.52-1.07-.39-2.05-.88-2.92-1.39-1.74-1.04-3-2.23-3.78-3.13-.39-.44-.67-.85-.85-1.1-.18-.26-.27-.41-.27-.41Z"/>
      <path class="cls-3" d="M92.1,92.56s.13-.02,.36-.03c.23,0,.58-.04,.97-.07,.81-.06,1.93-.15,3.19-.32,.63-.07,1.3-.18,1.99-.3,.69-.11,1.41-.26,2.14-.41,.73-.17,1.47-.33,2.22-.52h.04s0-.01,0-.01c-.09,.02-.02,0-.04,0h.02s.08-.03,.08-.03l.16-.04,.32-.08,.52-.15c.35-.11,.73-.21,1.08-.33,1.45-.47,2.83-1.03,4.06-1.65,.61-.31,1.18-.65,1.71-1.01,.28-.16,.51-.37,.76-.54l.21-.18,.16-.13c.12-.1,.23-.21,.35-.31,.93-.84,1.77-1.76,2.43-2.33,.66-.58,1.1-.86,1.1-.86,0,0,0,.13-.01,.36-.02,.23-.02,.58-.06,1-.08,.85-.15,2.03-.64,3.53-.06,.19-.13,.37-.22,.58-.08,.19-.17,.39-.26,.59-.21,.41-.43,.82-.7,1.22-.53,.8-1.2,1.58-1.97,2.26-1.53,1.39-3.44,2.42-5.4,3.06-.5,.16-.98,.29-1.49,.4-.26,.06-.55,.12-.78,.15l-.71,.1c-.98,.12-1.95,.15-2.87,.09-1.86-.09-3.55-.54-4.89-1.13-.67-.3-1.25-.63-1.75-.96-.49-.33-.89-.66-1.2-.96-.32-.29-.53-.56-.67-.73-.14-.18-.22-.28-.22-.28Z"/>
      <path class="cls-4" d="M49.68,82.89c.62,.96,.17,2.4-1,3.22-1.17,.82-2.61,.7-3.23-.26-.62-.96-.17-2.4,1-3.22,1.17-.82,2.61-.7,3.23,.26Z"/>
      <path class="cls-4" d="M42.8,79.28c.56,.87,.25,2.12-.7,2.78-.95,.66-2.17,.49-2.72-.38-.56-.87-.25-2.12,.7-2.78,.95-.66,2.17-.49,2.72,.38Z"/>
      <path class="cls-4" d="M48.96,72.16c.56,.87,.25,2.12-.7,2.78-.95,.66-2.17,.49-2.72-.38-.56-.87-.25-2.12,.7-2.78,.95-.66,2.17-.49,2.72,.38Z"/>
      <path class="cls-4" d="M40.74,87.97c.74,.72,.54,2.17-.45,3.25-.99,1.08-2.39,1.37-3.12,.66-.74-.72-.54-2.17,.45-3.25,.99-1.08,2.39-1.37,3.12-.66Z"/>
      <path class="cls-4" d="M59.16,67.03c.62,.96,.17,2.4-1,3.22s-2.61,.7-3.23-.26c-.62-.96-.17-2.4,1-3.22,1.17-.82,2.61-.7,3.23,.26Z"/>
      <path class="cls-4" d="M58.43,77.19c.62,.96,.17,2.4-1,3.22-1.17,.82-2.61,.7-3.23-.26-.62-.96-.17-2.4,1-3.22,1.17-.82,2.61-.7,3.23,.26Z"/>
      <path class="cls-4" d="M67.13,71.04c.56,.87,.25,2.12-.7,2.78-.95,.66-2.17,.49-2.72-.38-.56-.87-.25-2.12,.7-2.78,.95-.66,2.17-.49,2.73,.38Z"/>
      <path class="cls-4" d="M75.39,64.66c.19,.64-.35,1.4-1.21,1.7-.86,.3-1.71,.03-1.9-.6-.19-.64,.35-1.4,1.21-1.7,.86-.3,1.71-.03,1.9,.6Z"/>
      <path class="cls-4" d="M28.74,99.83c.51,.4,.47,1.33-.1,2.07-.56,.74-1.43,1.02-1.94,.61-.51-.4-.47-1.33,.1-2.07,.56-.74,1.43-1.02,1.94-.61Z"/>
      <path class="cls-4" d="M45.69,91.32c.51,.4,.47,1.33-.1,2.07-.56,.74-1.43,1.02-1.94,.61-.51-.4-.47-1.33,.1-2.07,.56-.74,1.43-1.02,1.94-.61Z"/>
      <path class="cls-4" d="M68.01,62.24c.62,.96,.17,2.4-1,3.22-1.17,.82-2.61,.7-3.23-.26-.62-.96-.17-2.4,1-3.22,1.17-.82,2.61-.7,3.23,.26Z"/>
      <path class="cls-4" d="M104.17,46.38c0,.96-.93,1.78-2.07,1.84-1.14,.06-2.05-.67-2.05-1.63,0-.96,.93-1.78,2.07-1.84,1.14-.06,2.05,.67,2.05,1.63Z"/>
      <path class="cls-4" d="M99.26,53.26c0,.96-.93,1.78-2.07,1.84-1.14,.06-2.05-.67-2.05-1.63s.93-1.78,2.07-1.84c1.14-.06,2.05,.67,2.05,1.63Z"/>
      <path class="cls-4" d="M107.77,52.81c0,.87-.76,1.61-1.68,1.66-.92,.05-1.67-.62-1.66-1.49,0-.87,.76-1.61,1.68-1.66,.92-.05,1.66,.62,1.66,1.49Z"/>
      <path class="cls-4" d="M116.07,51.99c-.15,.54-.84,.84-1.55,.67-.71-.17-1.16-.74-1.01-1.28,.15-.54,.84-.84,1.55-.67,.71,.17,1.16,.74,1.01,1.28Z"/>
      <path class="cls-4" d="M112.18,46.96c0,.96-.93,1.78-2.07,1.84-1.14,.06-2.05-.67-2.05-1.63s.93-1.78,2.07-1.84c1.14-.06,2.05,.67,2.05,1.63Z"/>
      <path class="cls-4" d="M35.83,95.15c.83,.76,.74,2.26-.2,3.34-.94,1.08-2.38,1.34-3.22,.58-.83-.76-.74-2.26,.2-3.34,.94-1.08,2.38-1.34,3.22-.58Z"/>
      <path class="cls-4" d="M32.37,87.72c.86,.73,.82,2.23-.08,3.35-.91,1.12-2.34,1.43-3.2,.7-.86-.73-.82-2.23,.08-3.35,.91-1.12,2.34-1.43,3.2-.7Z"/>
      <path class="cls-3" d="M84.23,65.83c-.48-3.17,7.91,4.15-34.08,37.09-13.16,10.33-21.74,9.27-24.85,8.58-1.71-.38-3.13-1.58-3.13-1.58,0,0,1.39,1.87,2.14,2.59,2.42,2.32,7.9,6.06,15.54,2,19.33-10.27,45.44-33.74,45.64-35.26l-1.27-13.42Z"/>
      <path class="cls-3" d="M43.47,18.9s-.42,.5-1.15,1.38c-.71,.86-1.73,2.08-2.6,3.58-.42,.74-.8,1.56-.95,2.32-.07,.37-.09,.71-.04,.94,.06,.24,.13,.34,.22,.38,.09,.04,.17,.1,.37,.18,.2,.07,.49,.14,.84,.18,.7,.05,1.61-.05,2.53-.33,.46-.12,.94-.29,1.4-.49l.35-.15,.04-.02h.02s.01-.01,.01-.01c-.12,.06-.03,.01-.05,.03l.1-.05,.2-.1,.4-.19,.29-.15c.39-.21,.83-.48,1.22-.74,.39-.27,.76-.57,1.11-.87,.68-.62,1.29-1.29,1.71-1.99,.44-.69,.69-1.38,.78-1.96,.07-.57-.02-1.09-.36-1.56-.33-.47-.85-.81-1.3-1.04-.46-.23-.87-.39-1.15-.47-.29-.09-.44-.14-.44-.14,0,0,.14-.07,.42-.18,.14-.06,.32-.12,.53-.18,.21-.07,.47-.12,.76-.16,.58-.06,1.35-.07,2.26,.35,.45,.22,.92,.56,1.32,1.07,.4,.5,.71,1.14,.91,1.83,.36,1.39,.24,2.9-.17,4.25-.41,1.38-1.1,2.65-1.99,3.78-.44,.57-.93,1.09-1.46,1.58-.54,.49-1.07,.92-1.72,1.33l-.49,.31-.4,.23-.2,.11-.1,.06-.18,.09-.47,.23c-.64,.29-1.3,.54-2,.75-1.39,.38-2.91,.61-4.57,.29-.82-.15-1.68-.45-2.51-1-.82-.54-1.62-1.37-2.09-2.43-.48-1.04-.61-2.2-.49-3.15,.11-.96,.4-1.76,.74-2.42,.69-1.32,1.55-2.18,2.36-2.86,1.65-1.32,3.17-1.89,4.23-2.23,.53-.17,.97-.25,1.26-.31,.29-.05,.45-.08,.45-.08Z"/>
      <path class="cls-3" d="M29.77,40.81s-.06,.08-.17,.24c-.11,.15-.27,.37-.48,.66-.39,.55-.95,1.34-1.41,2.23-.22,.44-.41,.93-.46,1.34-.02,.2,0,.36,.03,.45,.05,.09,.09,.07,.11,.02,.02-.05,.02-.08,.09-.07,.12,.01,.24,.03,.37,.04,.35,0,.84-.04,1.35-.2,.52-.14,1.06-.36,1.57-.62,.46-.23,.93-.54,1.33-.86,.39-.33,.74-.68,1-1.04,.27-.36,.42-.7,.51-.99,.07-.27,.09-.54-.07-.83-.16-.28-.44-.52-.7-.68-.26-.15-.5-.28-.67-.34-.17-.07-.26-.11-.26-.11,0,0,.08-.05,.25-.13,.17-.07,.42-.2,.78-.26,.35-.05,.84-.1,1.42,.15,.58,.23,1.22,.93,1.47,1.83,.25,.89,.19,1.85-.05,2.71-.24,.87-.66,1.68-1.2,2.39-.55,.72-1.19,1.33-1.96,1.83-.71,.48-1.51,.85-2.37,1.11-.86,.24-1.82,.38-2.87,.17-.53-.1-1.08-.3-1.62-.66-.54-.36-1.07-.91-1.37-1.62-.31-.7-.4-1.47-.31-2.09,.09-.62,.27-1.14,.49-1.55,.45-.83,1.01-1.34,1.52-1.74,1.05-.77,1.98-1.06,2.65-1.22,.33-.1,.59-.1,.77-.13,.18-.02,.28-.03,.28-.03Z"/>
      <path class="cls-3" d="M64.37,21.47s-.22,.33-.6,.84c-.37,.52-.92,1.24-1.44,2.05-.25,.4-.5,.85-.64,1.25-.06,.2-.1,.38-.07,.45,.02,.09,.13-.05,.05-.37-.04-.15-.12-.29-.18-.35-.06-.07-.09-.09-.08-.11,.02-.02,.16-.02,.34-.04,.36-.05,.86-.15,1.35-.34,.25-.08,.51-.18,.77-.29,.12-.05,.28-.13,.36-.15l.42-.19c.44-.21,.95-.48,1.37-.75,.42-.28,.82-.56,1.14-.85,.32-.28,.57-.58,.69-.73,.07-.08,.12-.09,.18-.13,.06-.04,.07-.12,.02-.24-.12-.22-.43-.42-.68-.54-.26-.12-.5-.21-.65-.26-.16-.06-.25-.09-.25-.09,0,0,.07-.06,.22-.16,.15-.09,.36-.25,.68-.35,.32-.1,.74-.25,1.35-.09,.3,.09,.67,.31,.96,.71,.29,.4,.42,.93,.44,1.39,.04,.95-.23,1.72-.57,2.44-.35,.71-.81,1.35-1.34,1.92-.55,.57-1.12,1.05-1.83,1.49l-.45,.27c-.22,.12-.35,.19-.54,.27-.35,.16-.71,.32-1.08,.45-.76,.24-1.57,.43-2.51,.39-.47-.02-.99-.1-1.57-.35-.29-.13-.61-.32-.92-.6-.31-.28-.6-.69-.77-1.15-.17-.46-.22-.94-.2-1.33,.02-.4,.12-.73,.22-1,.22-.55,.48-.92,.75-1.22,.53-.6,1.07-.96,1.57-1.25,1-.56,1.88-.77,2.5-.87,.3-.06,.56-.07,.73-.09,.17,0,.26-.01,.26-.01Z"/>
      <path class="cls-3" d="M82.57,17.03s-.18,.24-.48,.63c-.29,.38-.71,.93-1.06,1.57-.17,.32-.32,.67-.37,.97-.02,.15-.02,.28,0,.35,.03,.08,.06,.07,.08,.05,.02-.03,.02-.03,.09-.02,.06,0,.17,.03,.3,.04,.27,0,.64-.03,1.02-.15,.39-.11,.78-.27,1.16-.46,.34-.17,.69-.4,.98-.64,.59-.48,1.01-1.1,1.1-1.53,.05-.21,.05-.41-.07-.61-.13-.19-.34-.36-.53-.46-.19-.1-.37-.18-.49-.22-.12-.05-.19-.07-.19-.07,0,0,.06-.03,.18-.09,.12-.05,.3-.14,.56-.18,.25-.04,.59-.07,1,.12,.41,.16,.87,.66,1.02,1.3,.16,.63,.1,1.3-.08,1.9-.18,.61-.49,1.17-.88,1.66-.39,.5-.85,.92-1.39,1.28-.5,.33-1.07,.59-1.67,.78-.61,.17-1.28,.27-2.02,.14-.37-.07-.76-.19-1.14-.44-.38-.24-.76-.63-.97-1.13-.22-.49-.28-1.04-.21-1.47,.07-.43,.2-.79,.36-1.08,.32-.58,.71-.94,1.08-1.22,.74-.54,1.4-.76,1.88-.89,.23-.07,.42-.08,.55-.11,.13-.02,.2-.02,.2-.02Z"/>
      <path class="cls-3" d="M10.34,98.81c1.96,.89,3.56,2.53,4.11,4.65,12.49,47.99,70.18,34.24,70.18,34.24,0,0-61.56,22.75-79.75-39.13-.04-.22-.08-.42-.11-.6h0c-.11-.59,.29-1.18,.89-1.29l4.69,2.14Z"/>
      <path class="cls-3" d="M31.47,10.65c-1.56,.4-2.27,2.42-1.32,3.9,.51,.8,1.39,1.22,2.24,1.05,53.73-11.26,79.2,8.64,86.71,16.28l.14-.77C112.12,21.41,87.56-3.73,31.47,10.65Z"/>
      <path class="cls-3" d="M108.94,28.52c-5.18-1.82-10.61-2.5-15.96-2.55-5.36-.02-10.7,.59-15.92,1.67-5.24,1.06-10.37,2.64-15.39,4.57-2.5,.98-4.98,2.06-7.42,3.24-1.22,.59-2.43,1.2-3.63,1.85l-3.49,1.99-3.54,2.2-3.4,2.27-3.31,2.39c-1.09,.81-2.16,1.64-3.24,2.46-4.3,3.32-8.41,6.87-12.42,10.52-4.03,3.63-7.9,7.45-11.71,11.28-.27,.28-.54,.55-.81,.83-.05-2.12-.04-4.29,0-6.42,.09-2.72,.26-5.42,.51-8.12,.54-5.38,1.47-10.7,2.9-15.83,.72-2.56,1.55-5.08,2.52-7.53,.97-2.45,2.1-4.81,3.35-7.07,1.25-2.27,2.69-4.38,4.27-6.3,.54-.65,1.11-1.26,1.69-1.83-.39,.86-.79,1.72-1.19,2.59-1.16,2.53-2.31,5.11-3.36,7.73-2.11,5.25-3.83,10.7-5.05,16.27-.62,2.78-1.07,5.61-1.39,8.45-.32,2.84-.5,5.69-.51,8.54,.34-2.82,.79-5.61,1.38-8.35,.59-2.74,1.32-5.44,2.13-8.09,1.64-5.31,3.79-10.38,6.21-15.27,1.21-2.45,2.5-4.84,3.84-7.24,.66-1.21,1.34-2.41,2-3.69,.17-.34,.33-.65,.5-1.02,.08-.18,.16-.35,.26-.61,.09-.24,.19-.5,.23-.64,.15-.48,.29-1.02,.31-1.74,0-.36-.02-.78-.16-1.26-.13-.47-.4-1.03-.83-1.47-.42-.45-.95-.73-1.4-.86-.46-.13-.85-.14-1.19-.13-.68,.05-1.18,.22-1.63,.41-.95,.43-1.48,.82-2.11,1.24-1.22,.85-2.33,1.79-3.37,2.81-2.09,2.02-3.91,4.28-5.55,6.68-1.65,2.39-3.09,4.93-4.38,7.56-1.29,2.62-2.42,5.34-3.38,8.12-.97,2.78-1.79,5.62-2.49,8.49-.67,2.88-1.21,5.79-1.64,8.72C.3,61.24-.04,67.13,0,73.11c0,1.54,.06,2.94,.11,4.36l.03,.8v.07s.02,.29,.02,.29c.02,.16,.04,.33,.06,.49,.19,1.32,.82,2.67,1.7,3.63,1.76,1.92,4.28,2.48,6.51,1.59,.28-.12,.51-.22,.89-.46,.32-.19,.77-.56,.72-.53l.09-.08,.34-.31,.18-.18,.71-.71,1.43-1.41,2.83-2.82c3.76-3.76,7.6-7.38,11.45-10.96,3.86-3.57,7.82-6.99,11.83-10.28,1.01-.8,2.02-1.63,3.04-2.42l3.08-2.33,3.11-2.25,3.09-2.09,3.28-2.04c1.09-.64,2.18-1.28,3.28-1.88,2.21-1.22,4.46-2.35,6.75-3.4,4.57-2.13,9.29-3.89,14.09-5.34,4.81-1.41,9.71-2.49,14.66-3,2.47-.26,4.96-.39,7.44-.32,2.48,.05,4.96,.3,7.39,.79,3.53,.72,7.02,1.97,10.15,4.02l.43-2.29c-2.9-2.46-6.27-4.3-9.75-5.51ZM25.06,15.05s.03,.09,.01,.21h0c-.03-.15-.02-.2,0-.21ZM4.41,75.63s-.02,.02,.01-.01h-.01Zm4.57,2.22v.15s0-.07,0-.07v-.13s0,.03,0,.04Z"/>
    </g>
    <text class="cls-1" transform="translate(165.31 102.22)"><tspan x="0" y="0">MUAWIN</tspan></text>
  </g>
</svg>