<svg id="Layer_1" data-name="Layer 1" xmlns="http://www.w3.org/2000/svg" viewBox="0 0 1080 290.08"><defs><style>.cls-1,.cls-4{fill:#fff;}.cls-2{fill:#feda00;}.cls-3{fill:#f15a22;}.cls-4{fill-rule:evenodd;}</style></defs><path class="cls-1" d="M662.87,193.15c-8.47-9.5-8.7-20.25-8.39-69.48v-3.33c0-6.14.08-12.86.1-20.21a11.66,11.66,0,0,0-11.68-11.72H630.68A11.69,11.69,0,0,0,619,100.08c0,17.32-.08,30.82-.13,41.47-.16,34.38-.18,38.79,1.62,46,8.56,37.77,40,51.34,64.41,51.48a67,67,0,0,0,42.74-15.65l5.1-4.31,5.1,4.31A67.45,67.45,0,0,0,781,239.06c26.06-.16,55.9-16,63.76-50.69,2-8,2-12.44,1.81-47.06-.05-10.61-.12-24-.14-41.24a11.69,11.69,0,0,0-11.69-11.66H822.56a11.68,11.68,0,0,0-11.68,11.72c0,6.08,0,11.72.09,17l0,6.51c.31,49.27.08,60-8.41,69.56a29.13,29.13,0,0,1-43.58,0h0c-8.48-9.51-8.71-20.27-8.41-69.47l.12-23.55a11.68,11.68,0,0,0-11.67-11.72H726.43a11.68,11.68,0,0,0-11.68,11.72c0,6.1,0,11.76.08,17l0,6.51c.3,49.22.07,60-8.39,69.48a29.14,29.14,0,0,1-43.61,0Z"/><path class="cls-1" d="M913.19,239.06h31.4c0-.05,0-75.23,0-75.23,0-15.48,11-42.54,43.86-42.54,31.86,0,43.85,25.85,43.85,42.09,0,0,0,75.63,0,75.68h31.4c0-.09,0-75.39,0-75.4,0-31.34-23.19-75.25-75.17-75.25h-.12c-43.45,0-75.3,34.23-75.3,75.24C913.16,163.67,913.2,239,913.19,239.06Z"/><rect class="cls-1" x="864.3" y="87.17" width="31.24" height="151.88"/><path class="cls-1" d="M601.17,164.93c0-.13,0-.24,0-.37,0-21.31-7.34-39.12-22.36-54.14-15-14.67-32.83-22-54.14-22-20.95,0-38.77,7.34-53.79,22-15,15-22.36,32.83-22.36,54.14,0,21,7.34,38.77,22.36,53.79s32.67,22.11,53.62,22.11l.06-.05c.09,0,29.82,0,29.91,0V208.73H524.69v0c-12.22,0-22.36-4.34-30.39-12.72q-12.57-12.06-12.57-31.44c0-12.92,4.19-23.4,12.57-31.78,8-8,18.17-12.23,30.39-12.23a42.7,42.7,0,0,1,30.74,12.23c8,8.38,12.23,18.86,12.23,31.78v76.15h33.53V165.05C601.18,165,601.17,165,601.17,164.93Z"/><path class="cls-1" d="M430.88,88.41H399.17s0,76,0,76c0,15.63-11.11,43-44.28,43-32.17,0-44.27-26.11-44.27-42.5,0,0,0-76.37,0-76.42h-31.7c0,.09,0,76.12,0,76.13,0,31.64,23.41,76,75.9,76h.12c43.87,0,76-34.56,76-76C430.91,164.53,430.87,88.5,430.88,88.41Z"/><path class="cls-2" d="M195.9,67.28H81.16c-35.85,0-64.91,28.23-64.91,63.05v64.46a62,62,0,0,0,19,44.59A65.29,65.29,0,0,0,65,255.88a67.59,67.59,0,0,0,23,1.63,17.44,17.44,0,0,0,11.1-5.5c2.78-3,3.53-4.74,4.46-8.95a7.06,7.06,0,0,1,1.64-3.85,5.64,5.64,0,0,1,4-1.6,5.53,5.53,0,0,1,5.61,5.45v25.1c0,5.5,6.73,8.34,10.89,4.6a69.56,69.56,0,0,1,11.62-8.42,47.85,47.85,0,0,1,15.61-5.43A85.17,85.17,0,0,1,165,257.73l.72,0c16.55-.41,33.72,2.15,49.77-2.79,26-8,44.31-31.69,45.25-58,0-.71,0-1.41,0-2.12V130.33C260.81,95.51,231.75,67.28,195.9,67.28Z"/><path class="cls-3" d="M195.44,138.38c6.91,8.46,7.09,18,6.84,61.83v3c0,5.47-.07,11.45-.08,18a10.92,10.92,0,0,0,2.77,7.37,9.15,9.15,0,0,0,6.74,3.05h10c5.25,0,9.51-4.64,9.52-10.38,0-15.42.06-27.43.1-36.91.13-30.59.15-34.52-1.32-41-7-33.62-32.55-45.69-52.46-45.81a51.88,51.88,0,0,0-34.82,13.93l-4.15,3.83-4.15-3.83a52.25,52.25,0,0,0-35.2-13.93c-21.22.14-45.53,14.21-51.93,45.11-1.62,7.13-1.6,11.07-1.47,41.88,0,9.44.09,21.39.11,36.69,0,5.74,4.27,10.38,9.52,10.38h10a9.15,9.15,0,0,0,6.74-3.05,11,11,0,0,0,2.78-7.37q0-8.11-.07-15.11l0-5.79c-.25-43.85-.06-53.42,6.85-61.9a22.42,22.42,0,0,1,35.5,0h0c6.91,8.47,7.09,18,6.85,61.83l-.1,20.95a10.88,10.88,0,0,0,2.78,7.37,9.11,9.11,0,0,0,6.73,3.06h10.28a9.15,9.15,0,0,0,6.74-3.05,11,11,0,0,0,2.78-7.37q0-8.14-.07-15.16l0-5.8c-.25-43.8-.06-53.36,6.83-61.83a22.43,22.43,0,0,1,35.52,0Z"/><path class="cls-4" d="M901.32,35.61s.1-.08.09,0a7.4,7.4,0,0,1,0,1.29c-.62,5.55-2.77,24-2.77,24a3,3,0,0,1-.85,1.68,7.53,7.53,0,0,1-3.75,2,9,9,0,0,1-6.53-1.2,2.71,2.71,0,0,1-1.3-2l-3.45-25s.68,0,.9,2.25c.79,8.09,3,16.8,3.51,20.22.71,4.74,5.41,4.95,8.81,3.41.55-.26,1.64-1.21,1.74-1.82l.89-21.86C898.59,38.31,900.7,36.69,901.32,35.61Z"/><path class="cls-1" d="M905.42,38.39l.19.24c.11.16.28.4.46.72a12.28,12.28,0,0,1,1.16,2.87,15.75,15.75,0,0,1,.42,2.05,17.94,17.94,0,0,1,.15,2.37c0,.41,0,.83,0,1.26s-.07.86-.13,1.29-.13.87-.21,1.31-.19.87-.3,1.3a23.39,23.39,0,0,1-.83,2.53c-.17.41-.32.82-.52,1.21s-.35.78-.55,1.15-.39.74-.6,1.08-.41.68-.62,1c-.43.64-.84,1.24-1.26,1.76l-.6.74c-.2.23-.39.45-.58.65a13.62,13.62,0,0,1-1,1c-.28.27-.52.47-.67.61l-.24.21.13-.29c.08-.19.2-.47.37-.81l.57-1.24c.11-.24.24-.48.36-.75l.38-.83c.06-.15.13-.29.2-.44s.14-.31.2-.47.29-.63.43-1,.28-.67.42-1,.28-.7.42-1.07a44.25,44.25,0,0,0,1.49-4.56c.11-.39.19-.79.29-1.18s.18-.78.24-1.17c.15-.78.27-1.55.36-2.3s.16-1.48.19-2.17,0-1.35,0-2,0-1.18-.06-1.68-.08-.94-.12-1.3-.08-.65-.12-.85Z"/><path class="cls-4" d="M885.43,53.36c-.55.64-15.2,13-19.39,13.08a2.43,2.43,0,0,1-2.33-1.38s1.62,3.51,21.14-13.65Zm-20.89-2.21h0s0,0,0,0,0,0,0,0h0ZM875.94,43Z"/><path class="cls-1" d="M883.61,40.05a9.37,9.37,0,0,0-1.73-.66,9.66,9.66,0,0,0-2.33-.31,13.17,13.17,0,0,0-2.78.28,19.2,19.2,0,0,0-3,.93c-.51.2-1,.43-1.55.67l-.77.4-.77.41a28.53,28.53,0,0,0-3,2,27.74,27.74,0,0,0-2.73,2.31,26.52,26.52,0,0,0-2.34,2.57c-.35.44-.66.89-1,1.34s-.57.89-.82,1.34a14.5,14.5,0,0,0-1.15,2.64,11,11,0,0,0-.51,2.39,11.29,11.29,0,0,0,.13,3.19l.08.45-.24-.38c-.08-.12-.17-.29-.27-.48a6.3,6.3,0,0,1-.32-.68,9,9,0,0,1-.55-2,10.54,10.54,0,0,1,0-2.77,13.25,13.25,0,0,1,.81-3.24,16.83,16.83,0,0,1,1.7-3.32c.17-.28.36-.54.55-.81l.59-.79c.41-.52.86-1,1.32-1.51a24.1,24.1,0,0,1,6.47-4.84,18.13,18.13,0,0,1,1.8-.82,17.82,17.82,0,0,1,1.82-.63,16.27,16.27,0,0,1,3.59-.64,12.13,12.13,0,0,1,3.25.25,9,9,0,0,1,2.53,1,4.3,4.3,0,0,1,1.23,1Z"/><path class="cls-4" d="M887.05,59.92c-8.49,7.14-12.88,8.82-16.63,8.86-3.17,0-5.61-1.9-6-2.87,0,0,3.81,6.09,22-9.29Z"/><path class="cls-4" d="M899.24,16.76l-.13,0,0,.19-3.42,18.85.71-.09,3-16.09.1,0a1,1,0,0,1,.75.13l-3.67,16,.62-.08,4.28-18.18v-.22S900.91,16.26,899.24,16.76Z"/><path class="cls-4" d="M901.06,34.29a2.9,2.9,0,0,0-.57-.66,8,8,0,0,0-4.33-1.81,24.65,24.65,0,0,0-4-.28A17.64,17.64,0,0,0,885.41,33c-1.82.84-3,2-3,3.25h0c-.06,1.25,1,2.34,2.72,3.09a16.37,16.37,0,0,0,6.65,1.08h0A17.82,17.82,0,0,0,898.41,39c1.78-.81,2.93-1.91,3-3.11l0-.78A2.08,2.08,0,0,0,901.06,34.29Zm-.25,1.44c-.09.82-1,1.59-2.51,2.18A17.56,17.56,0,0,1,892.88,39h0a15.42,15.42,0,0,1-5.41-.57c-1.41-.47-2.25-1.18-2.19-2h0c.07-.86,1-1.66,2.53-2.27A17.27,17.27,0,0,1,893.34,33a24,24,0,0,1,3.23.1,6.9,6.9,0,0,1,3.51,1.12,2.16,2.16,0,0,1,.46.44,1.37,1.37,0,0,1,.26.56Z"/><path class="cls-1" d="M884,46.62a10.25,10.25,0,0,1-.43,1.9,5.13,5.13,0,0,1-.53,1.49,9,9,0,0,1-1,1.44l-.08.09,0,.05,0,0-.12.12a1.71,1.71,0,0,1-.26.21,1.57,1.57,0,0,1-.55.25h-.38l-.22,0a2.55,2.55,0,0,0-.7-.07l-.24,0-.28.08-.1,0a.31.31,0,0,0-.13.06l-.22.13a2.51,2.51,0,0,0-.33.29l-.07.07-.06.06-.12.16a3.29,3.29,0,0,0-.35.55c-.18.33-.32.64-.45.94a13.34,13.34,0,0,1-.88,1.64,4.79,4.79,0,0,1-1.12,1.24,3.62,3.62,0,0,1-.68.41l-.18.08-.19.07-.17.06L874,58l-.21,0h-.08l-.44,0a2,2,0,0,0-.73.09,2.45,2.45,0,0,0-.66.29,3.48,3.48,0,0,0-.92.86c-.11.16-.21.31-.31.48l-.11.22-.11.21a6.7,6.7,0,0,1-.81,1.37,14.62,14.62,0,0,1-2.26,2.21,7.05,7.05,0,0,1-1.16.72,3.72,3.72,0,0,1-1.14.35,2.78,2.78,0,0,1-1.79-.37,4.1,4.1,0,0,1-.94-.76L862,63.4l0,.1c0,.06.09.16.16.28l.13.2.18.23.21.26a3.79,3.79,0,0,0,.29.26,2.59,2.59,0,0,0,.8.49,2.79,2.79,0,0,0,1.16.22,4.45,4.45,0,0,0,1.4-.25,7.47,7.47,0,0,0,1.42-.7,10.54,10.54,0,0,0,1.36-1,14.78,14.78,0,0,0,1.31-1.21l.08-.09.08-.09c.07-.07.12-.14.18-.21s.2-.27.29-.41.34-.55.49-.8l.11-.19.11-.18c.06-.08.14-.19.22-.28a2,2,0,0,1,.49-.42.7.7,0,0,1,.23-.08.35.35,0,0,1,.19,0c.11,0,.27,0,.5,0a2.62,2.62,0,0,0,.38,0l.27,0a5.39,5.39,0,0,0,2.19-.94,6.75,6.75,0,0,0,1.63-1.71,13.94,13.94,0,0,0,1-1.88l.41-.85c.07-.12.13-.23.18-.3l0,0,.06-.06,0,0,.24,0,.24.05.16,0h.55l.36-.06a3.47,3.47,0,0,0,1.26-.58,4.15,4.15,0,0,0,.51-.43l.22-.24.06-.08,0,0,.07-.1a9.47,9.47,0,0,0,1.1-1.79c0-.09.41-.67.45-.77Zm-4.4,7.07Zm0,0h0S879.67,53.67,879.66,53.68Z"/><path class="cls-1" d="M885,45.21l.17.06c.11,0,.27.09.47.16a10.1,10.1,0,0,0,1.59.38,8.08,8.08,0,0,0,1,.12l.55,0h.56l.55,0,.55-.1a4,4,0,0,0,1-.34,2.55,2.55,0,0,0,.43-.25l.09-.07,0,0h0l.07-.06.08-.07.1-.09.38-.43c.13-.16.27-.34.43-.52l.26-.26.11-.11.14-.12.28-.22.27-.19a5.37,5.37,0,0,1,1.09-.52,4.89,4.89,0,0,1,1.75-.24,4,4,0,0,1,.5.06l.17,0-.14.09c-.1.05-.23.15-.4.25a11.74,11.74,0,0,0-1.24,1,6.75,6.75,0,0,0-.68.72c-.11.14-.23.28-.32.41l-.16.24-.14.23-.33.55a4.53,4.53,0,0,1-.44.63c0,.05-.09.1-.13.16l-.15.16-.06.06-.09.08-.17.14a4.54,4.54,0,0,1-.72.45,5,5,0,0,1-2.3.47,6.15,6.15,0,0,1-.75-.06l-.19,0-.16,0-.08,0-.1,0-.17-.05a6.36,6.36,0,0,1-.66-.2A7.68,7.68,0,0,1,887,47a5.88,5.88,0,0,1-1.49-1.24,3.61,3.61,0,0,1-.34-.43A1.43,1.43,0,0,1,885,45.21Z"/><path class="cls-1" d="M886.94,53.12h.14l.39,0c.32,0,.76-.06,1.25-.12l.79-.12.84-.16.88-.21h0l.06,0,.13,0,.2-.06.43-.13a11.61,11.61,0,0,0,1.6-.65,5.39,5.39,0,0,0,.67-.4,3.21,3.21,0,0,0,.3-.21l.08-.07.07,0,.13-.12c.37-.33.7-.69,1-.92a3.51,3.51,0,0,1,.44-.34s0,.06,0,.15,0,.22,0,.39a5.85,5.85,0,0,1-.25,1.39l-.09.23a2.29,2.29,0,0,1-.1.23,4,4,0,0,1-.28.48,4.6,4.6,0,0,1-.77.89,5.87,5.87,0,0,1-2.13,1.21l-.59.16-.31.06-.28,0a6.12,6.12,0,0,1-1.13,0,5.48,5.48,0,0,1-1.93-.44,4.71,4.71,0,0,1-.68-.38c-.2-.14-.35-.27-.48-.38a2.63,2.63,0,0,1-.26-.29Z"/><path class="cls-4" d="M870.21,49.31a1,1,0,0,1-.39,1.27.91.91,0,0,1-1.28-.1,1,1,0,0,1,.4-1.27A.88.88,0,0,1,870.21,49.31Z"/><path class="cls-4" d="M867.5,47.89a.82.82,0,0,1-.28,1.09.74.74,0,0,1-1.07-.15.81.81,0,0,1,.27-1.09A.74.74,0,0,1,867.5,47.89Z"/><path class="cls-4" d="M869.93,45.08a.81.81,0,0,1-.28,1.09.73.73,0,0,1-1.07-.15.82.82,0,0,1,.27-1.09A.75.75,0,0,1,869.93,45.08Z"/><path class="cls-4" d="M866.68,51.31a1,1,0,0,1-.17,1.28c-.39.43-.94.54-1.23.26a1,1,0,0,1,.17-1.28C865.84,51.14,866.39,51,866.68,51.31Z"/><path class="cls-4" d="M874,43.05a1,1,0,0,1-.39,1.27.89.89,0,0,1-1.28-.1,1,1,0,0,1,.4-1.27A.89.89,0,0,1,874,43.05Z"/><path class="cls-4" d="M873.66,47.06a1,1,0,0,1-.39,1.27.89.89,0,0,1-1.27-.1,1,1,0,0,1,.39-1.27A.89.89,0,0,1,873.66,47.06Z"/><path class="cls-4" d="M877.09,44.64a.82.82,0,0,1-.27,1.09.75.75,0,0,1-1.08-.15.82.82,0,0,1,.28-1.09A.73.73,0,0,1,877.09,44.64Z"/><path class="cls-4" d="M880.35,42.12c.08.25-.14.55-.48.67a.56.56,0,0,1-.75-.24.62.62,0,0,1,.48-.67C879.94,41.76,880.28,41.87,880.35,42.12Z"/><path class="cls-4" d="M862,56a.6.6,0,0,1,0,.82c-.22.29-.56.4-.76.24a.6.6,0,0,1,0-.82C861.41,55.94,861.75,55.83,862,56Z"/><path class="cls-4" d="M868.64,52.63a.61.61,0,0,1,0,.82c-.22.29-.57.4-.77.24s-.18-.52,0-.82S868.44,52.47,868.64,52.63Z"/><path class="cls-4" d="M877.44,41.16a1,1,0,0,1-.39,1.27.88.88,0,0,1-1.27-.1,1,1,0,0,1,.39-1.27A.89.89,0,0,1,877.44,41.16Z"/><path class="cls-4" d="M891.7,34.91a.8.8,0,0,1-.82.72.69.69,0,0,1-.8-.64.79.79,0,0,1,.81-.72A.7.7,0,0,1,891.7,34.91Z"/><path class="cls-4" d="M889.77,37.62a.83.83,0,0,1-.82.73.71.71,0,0,1-.81-.65A.81.81,0,0,1,889,37,.71.71,0,0,1,889.77,37.62Z"/><path class="cls-4" d="M893.12,37.44a.69.69,0,0,1-.66.66.6.6,0,0,1-.66-.59.69.69,0,0,1,.66-.66A.61.61,0,0,1,893.12,37.44Z"/><path class="cls-4" d="M896.4,37.12a.5.5,0,0,1-.62.26.44.44,0,0,1-.39-.5.48.48,0,0,1,.61-.26A.45.45,0,0,1,896.4,37.12Z"/><path class="cls-4" d="M894.86,35.14a.81.81,0,0,1-.81.72.71.71,0,0,1-.81-.64.81.81,0,0,1,.81-.73A.71.71,0,0,1,894.86,35.14Z"/><path class="cls-4" d="M864.75,54.14a1,1,0,0,1-.08,1.32.91.91,0,0,1-1.27.23,1,1,0,0,1,.08-1.32A.91.91,0,0,1,864.75,54.14Z"/><path class="cls-4" d="M863.38,51.21a1,1,0,0,1,0,1.32.91.91,0,0,1-1.26.28,1,1,0,0,1,0-1.32A.92.92,0,0,1,863.38,51.21Z"/><path class="cls-1" d="M883.83,42.58c-.18-1.25,3.12,1.64-13.44,14.63-5.19,4.07-8.57,3.65-9.79,3.38a3.31,3.31,0,0,1-1.24-.62,10.88,10.88,0,0,0,.85,1,5,5,0,0,0,6.13.79c7.62-4.05,17.92-13.31,18-13.91Z"/><path class="cls-1" d="M867.76,24.07l-.45.55a10.18,10.18,0,0,0-1,1.41,3.06,3.06,0,0,0-.37.91,1,1,0,0,0,0,.37c0,.1.05.14.09.15l.14.07a1.26,1.26,0,0,0,.33.07,2.87,2.87,0,0,0,1-.13,4.11,4.11,0,0,0,.56-.19l.14-.06h0l0,0,.08,0,.15-.07.12-.06c.15-.08.33-.19.48-.29l.44-.34a3.48,3.48,0,0,0,.67-.79,1.86,1.86,0,0,0,.31-.77.85.85,0,0,0-.14-.62,1.52,1.52,0,0,0-.51-.41,2.64,2.64,0,0,0-.46-.18l-.17-.06.17-.07a.73.73,0,0,1,.21-.07,1.67,1.67,0,0,1,.3-.07,1.62,1.62,0,0,1,.89.14,1.57,1.57,0,0,1,.52.43,2,2,0,0,1,.36.72,3.16,3.16,0,0,1-.07,1.67,4.48,4.48,0,0,1-.78,1.5,5.67,5.67,0,0,1-.58.62,4.52,4.52,0,0,1-.68.52l-.19.13-.16.09-.08,0,0,0-.07,0-.18.09a6.74,6.74,0,0,1-.79.29,4,4,0,0,1-1.8.12,2.65,2.65,0,0,1-1-.4,2.26,2.26,0,0,1-.82-.95,2.46,2.46,0,0,1-.2-1.25,2.79,2.79,0,0,1,.3-.95,3.63,3.63,0,0,1,.93-1.13,4.86,4.86,0,0,1,1.67-.87c.21-.07.38-.1.49-.13Z"/><path class="cls-1" d="M862.36,32.71l-.07.1c0,.06-.11.14-.19.26a7.67,7.67,0,0,0-.56.88,1.9,1.9,0,0,0-.18.52.42.42,0,0,0,0,.18s0,0,0,0,0,0,0,0h.15a1.37,1.37,0,0,0,.53-.08,2.94,2.94,0,0,0,.62-.24,2.59,2.59,0,0,0,.52-.34,2.2,2.2,0,0,0,.4-.41,1.61,1.61,0,0,0,.2-.39.4.4,0,0,0,0-.32.73.73,0,0,0-.28-.27,1.25,1.25,0,0,0-.26-.13l-.1-.05.1,0a.94.94,0,0,1,.3-.1,1,1,0,0,1,.56.06,1.07,1.07,0,0,1,.58.72,1.94,1.94,0,0,1,0,1.07,2.77,2.77,0,0,1-.47.94,3.16,3.16,0,0,1-.78.72,3.32,3.32,0,0,1-.93.44,2.48,2.48,0,0,1-1.13.07,1.73,1.73,0,0,1-.64-.26,1.5,1.5,0,0,1-.54-.64,1.56,1.56,0,0,1-.13-.83,2,2,0,0,1,.2-.61,2.09,2.09,0,0,1,.6-.69,3,3,0,0,1,1-.48l.31-.05Z"/><path class="cls-1" d="M876,25.09s-.08.13-.23.33-.36.49-.57.81a2.27,2.27,0,0,0-.25.49.34.34,0,0,0,0,.18s.05,0,0-.15a.6.6,0,0,0-.07-.14s0,0,0,0,.06,0,.13,0a2.21,2.21,0,0,0,.53-.14l.31-.11.14-.06.17-.08c.17-.08.37-.19.54-.29a3.19,3.19,0,0,0,.44-.34,2.31,2.31,0,0,0,.28-.29s0,0,.07-.05,0-.05,0-.09a.57.57,0,0,0-.27-.21l-.26-.11-.1,0a.37.37,0,0,1,.09-.06.82.82,0,0,1,.27-.14.87.87,0,0,1,.53,0,.78.78,0,0,1,.38.28,1.11,1.11,0,0,1,.17.55,2,2,0,0,1-.22,1,3.34,3.34,0,0,1-.53.76,3.52,3.52,0,0,1-.73.58l-.17.11a1.5,1.5,0,0,1-.22.11,4.08,4.08,0,0,1-.42.18,2.82,2.82,0,0,1-1,.15,1.71,1.71,0,0,1-.62-.14,1.08,1.08,0,0,1-.36-.24,1.24,1.24,0,0,1-.31-.45,1.44,1.44,0,0,1-.07-.53,1.27,1.27,0,0,1,.08-.39A1.59,1.59,0,0,1,874,26a2.37,2.37,0,0,1,.62-.49,2.93,2.93,0,0,1,1-.34,2.4,2.4,0,0,1,.29,0Z"/><path class="cls-1" d="M883.18,23.33l-.19.25a5.93,5.93,0,0,0-.42.62,1.67,1.67,0,0,0-.14.39.28.28,0,0,0,0,.13s0,0,0,0h.15a1.25,1.25,0,0,0,.4-.06,2,2,0,0,0,.46-.18,3.22,3.22,0,0,0,.39-.25,1.3,1.3,0,0,0,.43-.61.29.29,0,0,0,0-.24.68.68,0,0,0-.2-.18l-.2-.09-.07,0,.07,0a.71.71,0,0,1,.22-.07.64.64,0,0,1,.39,0,.71.71,0,0,1,.41.51,1.47,1.47,0,0,1,0,.75,2.32,2.32,0,0,1-.35.66,2.62,2.62,0,0,1-.55.5,2.86,2.86,0,0,1-.66.31,1.92,1.92,0,0,1-.8.05,1.42,1.42,0,0,1-.44-.17,1,1,0,0,1-.47-1,1.38,1.38,0,0,1,.14-.42,1.46,1.46,0,0,1,.43-.48,1.84,1.84,0,0,1,.74-.35l.21-.05Z"/><path class="cls-1" d="M854.7,55.59a2.84,2.84,0,0,1,1.62,1.83C861.24,76.35,884,70.92,884,70.92s-24.27,9-31.45-15.43l0-.24h0a.44.44,0,0,1,.35-.51Z"/><path class="cls-1" d="M863,20.82a1,1,0,0,0-.52,1.54.86.86,0,0,0,.88.41c21.19-4.44,31.23,3.4,34.2,6.42l0-.31C894.84,25.06,885.15,15.15,863,20.82Z"/><path class="cls-1" d="M893.58,27.87a19.4,19.4,0,0,0-6.29-1,30,30,0,0,0-6.28.66,38.07,38.07,0,0,0-6.07,1.8c-1,.39-2,.82-2.93,1.28-.48.23-1,.47-1.43.73l-1.38.78-1.39.87-1.34.89-1.31,1c-.43.31-.85.64-1.28,1-1.69,1.31-3.31,2.71-4.9,4.15s-3.11,2.93-4.61,4.45l-.33.32c0-.83,0-1.69,0-2.53,0-1.07.1-2.14.2-3.2a37.09,37.09,0,0,1,1.14-6.24c.29-1,.62-2,1-3A23.78,23.78,0,0,1,857.71,27a15.56,15.56,0,0,1,1.69-2.49,9.09,9.09,0,0,1,.66-.72c-.15.34-.31.68-.47,1-.46,1-.91,2-1.32,3.05a39.49,39.49,0,0,0-2,6.42,30.8,30.8,0,0,0-.54,3.33,31.57,31.57,0,0,0-.21,3.36c.14-1.11.32-2.21.55-3.29s.52-2.14.84-3.19a39.54,39.54,0,0,1,2.45-6c.47-1,1-1.91,1.51-2.86.26-.47.53-.95.79-1.45l.2-.41c0-.07.06-.13.1-.24s.07-.19.09-.25a2.13,2.13,0,0,0,.12-.68,1.88,1.88,0,0,0-.06-.5,1.37,1.37,0,0,0-.33-.58,1.17,1.17,0,0,0-.55-.34,1.37,1.37,0,0,0-.47-.05,2.13,2.13,0,0,0-.65.16,5.88,5.88,0,0,0-.83.49A11,11,0,0,0,858,22.85a17.77,17.77,0,0,0-2.19,2.63,24.58,24.58,0,0,0-1.73,3,28.16,28.16,0,0,0-1.33,3.21,34.6,34.6,0,0,0-1,3.34c-.26,1.14-.48,2.29-.65,3.44a46.68,46.68,0,0,0-.45,7c0,.61,0,1.16,0,1.72l0,.31v.14a1.36,1.36,0,0,0,0,.2,2.71,2.71,0,0,0,.67,1.43,2.3,2.3,0,0,0,2.57.63,2.11,2.11,0,0,0,.35-.19,2.42,2.42,0,0,0,.28-.2l0,0,.13-.12.07-.07.29-.28.56-.55,1.12-1.12c1.48-1.48,3-2.91,4.51-4.32s3.09-2.76,4.67-4.05c.4-.32.79-.65,1.2-1l1.21-.92,1.22-.89,1.22-.82,1.29-.8c.43-.26.86-.51,1.3-.75.87-.48,1.76-.92,2.66-1.34a41.46,41.46,0,0,1,5.56-2.1,31.9,31.9,0,0,1,5.78-1.19,22,22,0,0,1,2.93-.12,15.9,15.9,0,0,1,2.92.31,11.47,11.47,0,0,1,4,1.58l.17-.9A12.27,12.27,0,0,0,893.58,27.87ZM860.5,22.55s0,0,0,.09h0A.17.17,0,0,1,860.5,22.55Zm-8.14,23.89Zm1.8.88v0Z"/></svg>